<?xml version="1.0" standalone="no"?>
<!DOCTYPE svg PUBLIC "-//W3C//DTD SVG 20010904//EN"
 "http://www.w3.org/TR/2001/REC-SVG-20010904/DTD/svg10.dtd">
<svg version="1.0" xmlns="http://www.w3.org/2000/svg"
 width="512.000000pt" height="512.000000pt" viewBox="0 0 512.000000 512.000000"
 preserveAspectRatio="xMidYMid meet">
<metadata>
Created by potrace 1.16, written by Peter Selinger 2001-2019
</metadata>
<g transform="translate(0.000000,512.000000) scale(0.100000,-0.100000)"
fill="#000000" stroke="none">
<path d="M1070 5024 c-197 -42 -349 -182 -417 -384 -17 -53 -18 -141 -21
-2052 -3 -2203 -6 -2071 60 -2206 40 -81 139 -185 219 -230 32 -18 92 -41 135
-52 75 -19 113 -20 1514 -20 1399 0 1439 1 1514 20 43 11 101 32 129 47 77 42
186 155 225 235 66 135 63 4 60 2206 -3 1911 -4 1999 -21 2052 -69 204 -221
343 -422 385 -102 21 -2875 21 -2975 -1z m1340 -683 c152 -35 308 -111 430
-209 178 -142 305 -342 362 -569 19 -73 22 -115 22 -248 0 -140 -3 -172 -26
-256 -108 -398 -420 -691 -823 -770 -93 -18 -310 -16 -401 4 -322 72 -581 272
-726 562 -138 273 -143 621 -14 899 157 340 496 578 861 605 98 7 244 -1 315
-18z"/>
</g>
</svg>
